<?xml version="1.0" encoding="UTF-8"?>
<!-- Svg Vector Icons : http://www.onlinewebfonts.com/icon -->
<!DOCTYPE svg PUBLIC "-//W3C//DTD SVG 1.1//EN" "http://www.w3.org/Graphics/SVG/1.1/DTD/svg11.dtd">
<svg fill="#fff" version="1.1" xmlns="http://www.w3.org/2000/svg" xmlns:xlink="http://www.w3.org/1999/xlink" x="0px" y="0px" viewBox="0 0 1000 1000" enable-background="new 0 0 1000 1000" xml:space="preserve">
<metadata> Svg Vector Icons : http://www.onlinewebfonts.com/icon </metadata>
<g><path d="M990,232.8c0-61.5-49.9-111.4-111.4-111.4H121.4C59.9,121.4,10,171.3,10,232.8v534.4c0,61.5,49.9,111.4,111.4,111.4h757.3c61.5,0,111.4-49.9,111.4-111.4V232.8z M920.3,236.4c1.6,5.8,2.5,11.8,2.5,18.1v490c0,6.7-0.7,13.1-2.5,19.2c-1.6-3.5-3.7-6.8-6.6-9.7L637.8,499.3L920.3,236.4z M143.9,187.1h712.7c6.3,0,12.3,1.4,18.1,3.1L555,487.8c-1.2,1.2-1.7,3-2.7,4.4l-7.5,7.8h-6.2c-7.7,12.9-21.9,22.3-38.4,22.3c-16.4,0-30.7-9.4-38.4-22.3h-6.2l-5.5-5.7c-1.3-2.1-2.3-4.4-4.1-6.2L126.3,190.1C131.9,188.6,137.7,187.1,143.9,187.1 M77.1,254.5c0-6.5,1.2-12.7,2.9-18.6l283.1,263.4L87.3,753.9c-3.2,3.2-5.5,6.8-7.1,10.7c-2-6.3-3-13.1-3-20.1L77.1,254.5L77.1,254.5z M143.9,811.4c-7,0-13.7-1.1-20.1-3.1c3.9-1.6,7.5-4,10.7-7.2L411.9,545c20.3,26.5,52.3,43.6,88.3,43.6c36.2,0,68.3-17.3,88.6-44l277.8,256.5c3.1,3.1,6.6,5.5,10.4,7.1c-6.5,2.1-13.3,3.3-20.5,3.3H143.9z"/></g>
</svg>