<svg width="28" height="25" viewBox="0 0 28 25" fill="none" xmlns="http://www.w3.org/2000/svg">
<g clip-path="url(#clip0_4:21)">
<path d="M14.1748 1.5625C20.7257 1.5625 26.0567 6.46973 26.0567 12.5C26.0567 18.5303 20.7257 23.4375 14.1748 23.4375C7.6239 23.4375 2.29299 18.5303 2.29299 12.5C2.29299 6.46973 7.6239 1.5625 14.1748 1.5625ZM14.1748 0C6.67574 0 0.595581 5.59692 0.595581 12.5C0.595581 19.4031 6.67574 25 14.1748 25C21.6739 25 27.7541 19.4031 27.7541 12.5C27.7541 5.59692 21.6739 0 14.1748 0ZM21.7452 16.6794L21.6689 16.4658C21.4899 15.9745 20.8998 15.4618 20.3561 15.3244L18.3487 14.8193C17.805 14.6835 17.0293 14.8667 16.6299 15.2344L15.9038 15.9027C13.2649 15.2451 11.1945 13.3393 10.4817 10.9101L11.2078 10.2417C11.6056 9.87549 11.8045 9.16138 11.657 8.65937L11.1099 6.81152C10.9624 6.31104 10.4021 5.76782 9.86835 5.60303L9.63957 5.53281C9.10414 5.36802 8.33999 5.53433 7.94216 5.9021L6.85476 6.90308C6.66083 7.08008 6.5365 7.58818 6.5365 7.58975C6.5 10.7667 7.85268 13.826 10.2927 16.0736C12.7261 18.3136 16.038 19.5573 19.4776 19.5297C19.4958 19.5297 20.0644 19.4184 20.2583 19.2398L21.3457 18.2388C21.7435 17.8741 21.9225 17.1707 21.7452 16.6794Z" fill="white"/>
</g>
<defs>
<clipPath id="clip0_4:21">
<rect width="27.1585" height="25" fill="white" transform="translate(0.595581)"/>
</clipPath>
</defs>
</svg>
