<?xml version="1.0" encoding="UTF-8" standalone="no"?>
<!DOCTYPE svg PUBLIC "-//W3C//DTD SVG 1.1//EN" "http://www.w3.org/Graphics/SVG/1.1/DTD/svg11.dtd">
<svg fill="#fff" width="100%" height="100%" viewBox="0 0 8509 8509" version="1.1" xmlns="http://www.w3.org/2000/svg" xmlns:xlink="http://www.w3.org/1999/xlink" xml:space="preserve" xmlns:serif="http://www.serif.com/" style="fill-rule:evenodd;clip-rule:evenodd;stroke-linejoin:round;stroke-miterlimit:2;"><path d="M8508.33,0l0,8506.88l-8508.33,0l0,-8506.88l8508.33,0Zm-1332.76,2680.86c42.579,-141.992 -0,-246.33 -202.654,-246.33l-670.125,0c-170.388,0 -248.942,90.13 -291.546,189.521c-0,0 -340.779,830.642 -823.542,1370.2c-156.183,156.184 -227.183,205.879 -312.379,205.879c-42.592,0 -104.254,-49.695 -104.254,-191.675l-0,-1327.6c-0,-170.392 -49.446,-246.33 -191.45,-246.33l-1053.05,0c-106.479,0 -170.517,79.08 -170.517,154.03c0,161.529 241.371,198.779 266.25,653.15l0,986.829c0,216.362 -39.075,255.587 -124.267,255.587c-227.175,0 -779.779,-834.354 -1107.53,-1789.08c-64.233,-185.562 -128.654,-260.521 -299.921,-260.521l-670.12,0c-191.463,0 -229.759,90.13 -229.759,189.521c0,177.492 227.188,1057.83 1057.82,2222.14c553.754,795.133 1333.95,1226.15 2043.9,1226.15c425.963,-0 478.658,-95.733 478.658,-260.633l0,-600.955c0,-191.466 40.354,-229.675 175.242,-229.675c99.387,0 269.779,49.696 667.358,433.067c454.363,454.363 529.267,658.196 784.842,658.196l670.125,-0c191.462,-0 287.196,-95.733 231.967,-284.654c-60.434,-188.292 -277.367,-461.475 -565.217,-785.313c-156.196,-184.583 -390.475,-383.362 -461.475,-482.775c-99.392,-127.771 -70.992,-184.583 0,-298.162c0,-0 816.45,-1150.12 901.646,-1540.58Z"/></svg>